<svg xmlns="http://www.w3.org/2000/svg" xmlns:xlink="http://www.w3.org/1999/xlink" width="100" zoomAndPan="magnify" viewBox="0 0 75 30.000001" height="40" preserveAspectRatio="xMidYMid meet" version="1.2">

<defs>

<clipPath id="410a0be764">

<path d="M 1.210938 0 L 73.789062 0 L 73.789062 29.03125 L 1.210938 29.03125 Z M 1.210938 0 "/></clipPath>

<clipPath id="9271464d2c">
<path d="M 36.292969 7.015625 L 60.972656 7.015625 L 60.972656 14.273438 L 36.292969 14.273438 Z M 36.292969 7.015625 "/></clipPath>

</defs>



<g id="8f84cdae8f">
<g clip-rule="nonzero" clip-path="url(#410a0be764)">


</g>

<g style="fill:#033980;fill-opacity:1;">

<g transform="translate(8.368379, 11.222053)">

<path style="stroke:none" d="M 4.625 -0.125 C 4.894531 -0.125 5.082031 -0.144531 5.1875 -0.1875 C 5.300781 -0.226562 5.359375 -0.335938 5.359375 -0.515625 C 5.359375 -0.691406 5.171875 -1.285156 4.796875 -2.296875 L 1.609375 -2.296875 C 1.304688 -1.410156 1.15625 -0.851562 1.15625 -0.625 C 1.15625 -0.394531 1.210938 -0.253906 1.328125 -0.203125 C 1.441406 -0.148438 1.648438 -0.125 1.953125 -0.125 L 1.96875 0 L -0.375 0 L -0.359375 -0.125 C -0.148438 -0.125 0.0078125 -0.140625 0.125 -0.171875 C 0.238281 -0.210938 0.363281 -0.304688 0.5 -0.453125 C 0.632812 -0.597656 0.765625 -0.8125 0.890625 -1.09375 C 1.015625 -1.382812 1.164062 -1.789062 1.34375 -2.3125 L 2.265625 -5 C 2.597656 -5.945312 2.765625 -6.519531 2.765625 -6.71875 C 2.765625 -6.925781 2.710938 -7.054688 2.609375 -7.109375 C 2.515625 -7.171875 2.328125 -7.203125 2.046875 -7.203125 L 2.03125 -7.3125 L 3.75 -7.3125 L 5.609375 -2.3125 C 5.921875 -1.476562 6.128906 -0.945312 6.234375 -0.71875 C 6.335938 -0.5 6.441406 -0.359375 6.546875 -0.296875 C 6.722656 -0.179688 6.941406 -0.125 7.203125 -0.125 L 7.21875 0 L 4.609375 0 Z M 3.171875 -6.75 L 1.6875 -2.546875 L 4.71875 -2.546875 Z M 3.171875 -6.75 "/>

</g>
</g>

<g style="fill:#033980;fill-opacity:1;">

<g transform="translate(15.218904, 11.222053)">
<path style="stroke:none" d="M 2.09375 -5.046875 L 2.09375 -3.171875 C 2.15625 -3.679688 2.328125 -4.117188 2.609375 -4.484375 C 2.898438 -4.859375 3.285156 -5.046875 3.765625 -5.046875 C 4.828125 -5.046875 5.359375 -4.488281 5.359375 -3.375 L 5.359375 -1.71875 C 5.359375 -1 5.40625 -0.550781 5.5 -0.375 C 5.59375 -0.207031 5.84375 -0.125 6.25 -0.125 L 6.265625 0 L 3.734375 0 L 3.75 -0.125 C 4.164062 -0.125 4.414062 -0.207031 4.5 -0.375 C 4.582031 -0.550781 4.625 -1.03125 4.625 -1.8125 L 4.625 -3.265625 C 4.625 -3.753906 4.550781 -4.117188 4.40625 -4.359375 C 4.257812 -4.597656 4.019531 -4.71875 3.6875 -4.71875 C 3.363281 -4.71875 3.09375 -4.609375 2.875 -4.390625 C 2.664062 -4.171875 2.507812 -3.894531 2.40625 -3.5625 C 2.195312 -2.914062 2.09375 -2.265625 2.09375 -1.609375 C 2.09375 -0.953125 2.132812 -0.539062 2.21875 -0.375 C 2.3125 -0.207031 2.566406 -0.125 2.984375 -0.125 L 3 0 L 0.453125 0 L 0.46875 -0.125 C 0.882812 -0.125 1.140625 -0.207031 1.234375 -0.375 C 1.328125 -0.550781 1.375 -1.007812 1.375 -1.75 L 1.375 -2.578125 C 1.375 -3.628906 1.320312 -4.257812 1.21875 -4.46875 C 1.175781 -4.550781 1.113281 -4.625 1.03125 -4.6875 C 0.945312 -4.75 0.851562 -4.785156 0.75 -4.796875 C 0.644531 -4.804688 0.503906 -4.8125 0.328125 -4.8125 L 0.3125 -4.9375 C 0.914062 -5.007812 1.507812 -5.046875 2.09375 -5.046875 Z M 2.09375 -5.046875 "/>

</g>
</g>

<g style="fill:#033980;fill-opacity:1;">

<g transform="translate(21.807959, 11.222053)">
<path style="stroke:none" d="M 3.953125 -1.15625 C 3.835938 -0.789062 3.644531 -0.488281 3.375 -0.25 C 3.113281 -0.0078125 2.785156 0.109375 2.390625 0.109375 C 2.003906 0.109375 1.679688 0.03125 1.421875 -0.125 C 1.171875 -0.28125 0.976562 -0.484375 0.84375 -0.734375 C 0.5625 -1.210938 0.421875 -1.796875 0.421875 -2.484375 C 0.421875 -3.171875 0.65625 -3.769531 1.125 -4.28125 C 1.601562 -4.789062 2.238281 -5.046875 3.03125 -5.046875 C 3.375 -5.046875 3.691406 -5.003906 3.984375 -4.921875 L 3.984375 -5.921875 C 3.984375 -6.441406 3.960938 -6.789062 3.921875 -6.96875 C 3.890625 -7.15625 3.835938 -7.269531 3.765625 -7.3125 C 3.617188 -7.394531 3.398438 -7.4375 3.109375 -7.4375 L 3.078125 -7.5625 C 3.585938 -7.644531 4.132812 -7.6875 4.71875 -7.6875 L 4.71875 -2.328125 C 4.71875 -1.546875 4.738281 -1.035156 4.78125 -0.796875 C 4.832031 -0.554688 4.953125 -0.4375 5.140625 -0.4375 C 5.265625 -0.4375 5.421875 -0.484375 5.609375 -0.578125 L 5.671875 -0.484375 C 5.609375 -0.441406 5.53125 -0.390625 5.4375 -0.328125 C 5.351562 -0.265625 5.171875 -0.1875 4.890625 -0.09375 C 4.609375 0 4.34375 0.046875 4.09375 0.046875 C 4 -0.328125 3.953125 -0.726562 3.953125 -1.15625 Z M 1.46875 -0.984375 C 1.550781 -0.753906 1.679688 -0.566406 1.859375 -0.421875 C 2.035156 -0.285156 2.25 -0.21875 2.5 -0.21875 C 2.757812 -0.21875 2.988281 -0.300781 3.1875 -0.46875 C 3.394531 -0.644531 3.550781 -0.875 3.65625 -1.15625 C 3.875 -1.675781 3.984375 -2.210938 3.984375 -2.765625 L 3.984375 -4.375 C 3.679688 -4.601562 3.351562 -4.71875 3 -4.71875 C 2.644531 -4.71875 2.347656 -4.640625 2.109375 -4.484375 C 1.867188 -4.335938 1.6875 -4.140625 1.5625 -3.890625 C 1.332031 -3.421875 1.21875 -2.921875 1.21875 -2.390625 C 1.21875 -1.878906 1.300781 -1.410156 1.46875 -0.984375 Z M 1.46875 -0.984375 "/>

</g>
</g>

<g style="fill:#033980;fill-opacity:1;">
<g transform="translate(27.685812, 11.222053)">
<path style="stroke:none" d="M 3.640625 -5.09375 C 3.816406 -5.09375 3.96875 -5.054688 4.09375 -4.984375 C 4.226562 -4.910156 4.296875 -4.804688 4.296875 -4.671875 C 4.296875 -4.535156 4.253906 -4.429688 4.171875 -4.359375 C 4.085938 -4.285156 3.992188 -4.25 3.890625 -4.25 C 3.785156 -4.25 3.65625 -4.289062 3.5 -4.375 C 3.34375 -4.46875 3.175781 -4.515625 3 -4.515625 C 2.726562 -4.515625 2.503906 -4.265625 2.328125 -3.765625 C 2.160156 -3.265625 2.078125 -2.679688 2.078125 -2.015625 C 2.078125 -1.117188 2.125 -0.578125 2.21875 -0.390625 C 2.25 -0.328125 2.300781 -0.269531 2.375 -0.21875 C 2.445312 -0.164062 2.523438 -0.132812 2.609375 -0.125 C 2.691406 -0.125 2.8125 -0.125 2.96875 -0.125 L 2.984375 0 L 0.453125 0 L 0.46875 -0.125 C 0.695312 -0.125 0.859375 -0.132812 0.953125 -0.15625 C 1.054688 -0.1875 1.140625 -0.273438 1.203125 -0.421875 C 1.273438 -0.566406 1.316406 -0.75 1.328125 -0.96875 C 1.335938 -1.1875 1.34375 -1.535156 1.34375 -2.015625 L 1.34375 -2.625 C 1.34375 -3.59375 1.316406 -4.140625 1.265625 -4.265625 C 1.210938 -4.398438 1.164062 -4.503906 1.125 -4.578125 C 1.082031 -4.660156 1.019531 -4.71875 0.9375 -4.75 C 0.78125 -4.789062 0.578125 -4.8125 0.328125 -4.8125 L 0.3125 -4.921875 C 0.90625 -5.003906 1.492188 -5.046875 2.078125 -5.046875 L 2.078125 -3.515625 C 2.148438 -4.003906 2.320312 -4.390625 2.59375 -4.671875 C 2.863281 -4.953125 3.210938 -5.09375 3.640625 -5.09375 Z M 3.640625 -5.09375 "/>

</g>
</g>

<g style="fill:#033980;fill-opacity:1;">
<g transform="translate(31.984386, 11.222053)">
<path style="stroke:none" d="M 4.640625 -2.640625 L 1.21875 -2.640625 L 1.21875 -2.46875 C 1.21875 -1.726562 1.375 -1.164062 1.6875 -0.78125 C 2 -0.394531 2.390625 -0.203125 2.859375 -0.203125 C 3.554688 -0.203125 4.054688 -0.476562 4.359375 -1.03125 L 4.515625 -0.953125 C 4.148438 -0.242188 3.546875 0.109375 2.703125 0.109375 C 2.066406 0.109375 1.523438 -0.113281 1.078125 -0.5625 C 0.640625 -1.019531 0.421875 -1.632812 0.421875 -2.40625 C 0.421875 -3.175781 0.613281 -3.804688 1 -4.296875 C 1.394531 -4.796875 1.921875 -5.046875 2.578125 -5.046875 C 3.242188 -5.046875 3.753906 -4.820312 4.109375 -4.375 C 4.460938 -3.925781 4.640625 -3.347656 4.640625 -2.640625 Z M 2.609375 -4.84375 C 2.203125 -4.84375 1.882812 -4.671875 1.65625 -4.328125 C 1.425781 -3.984375 1.285156 -3.523438 1.234375 -2.953125 L 3.84375 -2.953125 C 3.789062 -4.210938 3.378906 -4.84375 2.609375 -4.84375 Z M 2.921875 -7.40625 C 3.085938 -7.550781 3.226562 -7.625 3.34375 -7.625 C 3.46875 -7.625 3.566406 -7.585938 3.640625 -7.515625 C 3.710938 -7.441406 3.75 -7.351562 3.75 -7.25 C 3.75 -7.0625 3.625 -6.898438 3.375 -6.765625 L 1.6875 -5.890625 L 1.53125 -6.140625 Z M 2.921875 -7.40625 "/>

</g>
</g>
<g style="fill:#033980;fill-opacity:1;">

<g transform="translate(37.151041, 11.222053)">

<path style="stroke:none" d="M 0.75 -1.5625 C 0.75 -1.101562 0.867188 -0.757812 1.109375 -0.53125 C 1.359375 -0.3125 1.648438 -0.203125 1.984375 -0.203125 C 2.328125 -0.203125 2.601562 -0.273438 2.8125 -0.421875 C 3.019531 -0.578125 3.125 -0.785156 3.125 -1.046875 C 3.125 -1.304688 3.035156 -1.519531 2.859375 -1.6875 C 2.679688 -1.851562 2.46875 -1.988281 2.21875 -2.09375 C 1.96875 -2.207031 1.710938 -2.316406 1.453125 -2.421875 C 1.203125 -2.535156 0.988281 -2.695312 0.8125 -2.90625 C 0.632812 -3.125 0.546875 -3.414062 0.546875 -3.78125 C 0.546875 -4.144531 0.707031 -4.445312 1.03125 -4.6875 C 1.351562 -4.925781 1.726562 -5.046875 2.15625 -5.046875 C 2.757812 -5.046875 3.234375 -4.945312 3.578125 -4.75 C 3.578125 -4.4375 3.535156 -3.992188 3.453125 -3.421875 L 3.328125 -3.453125 C 3.328125 -3.910156 3.222656 -4.242188 3.015625 -4.453125 C 2.804688 -4.660156 2.550781 -4.765625 2.25 -4.765625 C 1.957031 -4.765625 1.722656 -4.6875 1.546875 -4.53125 C 1.367188 -4.382812 1.28125 -4.175781 1.28125 -3.90625 C 1.28125 -3.644531 1.367188 -3.4375 1.546875 -3.28125 C 1.722656 -3.125 1.9375 -2.992188 2.1875 -2.890625 C 2.4375 -2.785156 2.6875 -2.675781 2.9375 -2.5625 C 3.195312 -2.445312 3.414062 -2.28125 3.59375 -2.0625 C 3.769531 -1.851562 3.859375 -1.597656 3.859375 -1.296875 C 3.859375 -0.847656 3.679688 -0.5 3.328125 -0.25 C 2.984375 -0.0078125 2.523438 0.109375 1.953125 0.109375 C 1.390625 0.109375 0.910156 -0.0390625 0.515625 -0.34375 C 0.515625 -0.695312 0.550781 -1.109375 0.625 -1.578125 Z M 0.75 -1.5625 "/>
</g>
</g>

<g style="fill:#902821;fill-opacity:1;">
<g transform="translate(8.341082, 22.95307)">
<path style="stroke:none" d="M 9.03125 -1.015625 C 8.019531 -0.253906 6.804688 0.125 5.390625 0.125 C 3.972656 0.125 2.828125 -0.328125 1.953125 -1.234375 C 1.085938 -2.140625 0.65625 -3.269531 0.65625 -4.625 C 0.65625 -5.988281 1.070312 -7.125 1.90625 -8.03125 C 2.75 -8.9375 3.875 -9.390625 5.28125 -9.390625 C 5.9375 -9.390625 6.59375 -9.300781 7.25 -9.125 C 7.90625 -8.945312 8.398438 -8.769531 8.734375 -8.59375 L 8.734375 -6.890625 L 8.59375 -6.921875 C 8.363281 -7.710938 7.976562 -8.269531 7.4375 -8.59375 C 6.894531 -8.925781 6.175781 -9.09375 5.28125 -9.09375 C 4.15625 -9.09375 3.296875 -8.679688 2.703125 -7.859375 C 2.109375 -7.046875 1.8125 -5.976562 1.8125 -4.65625 C 1.8125 -3.34375 2.125 -2.28125 2.75 -1.46875 C 3.382812 -0.65625 4.265625 -0.25 5.390625 -0.25 C 6.203125 -0.25 6.878906 -0.347656 7.421875 -0.546875 C 7.960938 -0.742188 8.5 -1.035156 9.03125 -1.421875 Z M 9.03125 -1.015625 "/>

</g>

</g>

<g style="fill:#902821;fill-opacity:1;">

<g transform="translate(17.778098, 22.95307)">
<path style="stroke:none" d="M 5.453125 -4.28125 L 5.453125 -2.9375 C 5.453125 -1.957031 5.484375 -1.316406 5.546875 -1.015625 C 5.609375 -0.710938 5.757812 -0.5625 6 -0.5625 C 6.15625 -0.5625 6.351562 -0.617188 6.59375 -0.734375 L 6.671875 -0.609375 C 6.597656 -0.554688 6.503906 -0.492188 6.390625 -0.421875 C 6.273438 -0.347656 6.039062 -0.25 5.6875 -0.125 C 5.332031 0 4.988281 0.0625 4.65625 0.0625 C 4.570312 -0.300781 4.53125 -0.890625 4.53125 -1.703125 C 4.332031 -1.160156 4.078125 -0.71875 3.765625 -0.375 C 3.453125 -0.0390625 3.015625 0.125 2.453125 0.125 C 1.898438 0.125 1.460938 -0.0195312 1.140625 -0.3125 C 0.816406 -0.601562 0.65625 -1.007812 0.65625 -1.53125 C 0.65625 -2.945312 1.945312 -3.660156 4.53125 -3.671875 L 4.53125 -4.140625 C 4.53125 -4.773438 4.4375 -5.257812 4.25 -5.59375 C 4.0625 -5.9375 3.71875 -6.109375 3.21875 -6.109375 C 2.9375 -6.109375 2.707031 -6.035156 2.53125 -5.890625 C 2.351562 -5.753906 2.234375 -5.601562 2.171875 -5.4375 C 2.023438 -4.976562 1.800781 -4.75 1.5 -4.75 C 1.207031 -4.75 1.0625 -4.910156 1.0625 -5.234375 C 1.0625 -5.566406 1.28125 -5.84375 1.71875 -6.0625 C 2.164062 -6.289062 2.703125 -6.40625 3.328125 -6.40625 C 3.953125 -6.40625 4.460938 -6.222656 4.859375 -5.859375 C 5.253906 -5.503906 5.453125 -4.976562 5.453125 -4.28125 Z M 1.671875 -1.46875 C 1.671875 -1.125 1.753906 -0.835938 1.921875 -0.609375 C 2.085938 -0.390625 2.351562 -0.28125 2.71875 -0.28125 C 3.082031 -0.28125 3.414062 -0.457031 3.71875 -0.8125 C 4.019531 -1.164062 4.222656 -1.5625 4.328125 -2 C 4.441406 -2.4375 4.507812 -2.890625 4.53125 -3.359375 C 3.550781 -3.359375 2.828125 -3.179688 2.359375 -2.828125 C 1.898438 -2.472656 1.671875 -2.019531 1.671875 -1.46875 Z M 1.671875 -1.46875 "/>

</g>
</g>

<g style="fill:#902821;fill-opacity:1;">

<g transform="translate(24.776334, 22.95307)">
<path style="stroke:none" d="M 0.953125 -1.96875 C 0.953125 -1.394531 1.101562 -0.960938 1.40625 -0.671875 C 1.71875 -0.390625 2.085938 -0.25 2.515625 -0.25 C 2.953125 -0.25 3.300781 -0.34375 3.5625 -0.53125 C 3.832031 -0.726562 3.96875 -0.992188 3.96875 -1.328125 C 3.96875 -1.660156 3.851562 -1.929688 3.625 -2.140625 C 3.394531 -2.359375 3.117188 -2.53125 2.796875 -2.65625 C 2.484375 -2.789062 2.164062 -2.925781 1.84375 -3.0625 C 1.519531 -3.207031 1.242188 -3.414062 1.015625 -3.6875 C 0.796875 -3.96875 0.6875 -4.335938 0.6875 -4.796875 C 0.6875 -5.253906 0.890625 -5.632812 1.296875 -5.9375 C 1.710938 -6.25 2.191406 -6.40625 2.734375 -6.40625 C 3.492188 -6.40625 4.09375 -6.28125 4.53125 -6.03125 C 4.53125 -5.625 4.476562 -5.054688 4.375 -4.328125 L 4.21875 -4.375 C 4.21875 -4.957031 4.082031 -5.378906 3.8125 -5.640625 C 3.550781 -5.910156 3.234375 -6.046875 2.859375 -6.046875 C 2.484375 -6.046875 2.179688 -5.945312 1.953125 -5.75 C 1.722656 -5.550781 1.609375 -5.285156 1.609375 -4.953125 C 1.609375 -4.628906 1.722656 -4.367188 1.953125 -4.171875 C 2.179688 -3.972656 2.453125 -3.804688 2.765625 -3.671875 C 3.085938 -3.535156 3.410156 -3.394531 3.734375 -3.25 C 4.054688 -3.101562 4.328125 -2.894531 4.546875 -2.625 C 4.773438 -2.351562 4.890625 -2.023438 4.890625 -1.640625 C 4.890625 -1.078125 4.664062 -0.640625 4.21875 -0.328125 C 3.78125 -0.0234375 3.203125 0.125 2.484375 0.125 C 1.765625 0.125 1.15625 -0.0625 0.65625 -0.4375 C 0.65625 -0.875 0.703125 -1.394531 0.796875 -2 Z M 0.953125 -1.96875 "/>

</g>
</g>
<g style="fill:#902821;fill-opacity:1;">

<g transform="translate(30.223824, 22.95307)">

<path style="stroke:none" d="M 2.328125 -6.265625 L 3.96875 -6.265625 L 3.96875 -5.96875 L 2.328125 -5.96875 L 2.328125 -0.921875 C 2.328125 -0.742188 2.367188 -0.597656 2.453125 -0.484375 C 2.546875 -0.367188 2.664062 -0.3125 2.8125 -0.3125 C 3.125 -0.3125 3.5 -0.40625 3.9375 -0.59375 L 3.96875 -0.453125 C 3.34375 -0.0664062 2.789062 0.125 2.3125 0.125 C 2.007812 0.125 1.78125 0.0507812 1.625 -0.09375 C 1.476562 -0.238281 1.40625 -0.5 1.40625 -0.875 L 1.40625 -5.96875 L 0.609375 -5.96875 L 0.609375 -6.265625 C 1.085938 -6.265625 1.421875 -6.398438 1.609375 -6.671875 C 1.796875 -6.941406 1.941406 -7.34375 2.046875 -7.875 L 2.328125 -7.890625 Z M 2.328125 -6.265625 "/>
</g>
</g>

<g style="fill:#902821;fill-opacity:1;">
<g transform="translate(34.451925, 22.95307)">

<path style="stroke:none" d="M 4.609375 -6.46875 C 4.828125 -6.46875 5.019531 -6.414062 5.1875 -6.3125 C 5.363281 -6.21875 5.453125 -6.085938 5.453125 -5.921875 C 5.453125 -5.753906 5.394531 -5.617188 5.28125 -5.515625 C 5.175781 -5.421875 5.054688 -5.375 4.921875 -5.375 C 4.796875 -5.375 4.632812 -5.429688 4.4375 -5.546875 C 4.238281 -5.660156 4.023438 -5.71875 3.796875 -5.71875 C 3.453125 -5.71875 3.171875 -5.398438 2.953125 -4.765625 C 2.742188 -4.128906 2.640625 -3.394531 2.640625 -2.5625 C 2.640625 -1.425781 2.695312 -0.738281 2.8125 -0.5 C 2.84375 -0.425781 2.90625 -0.351562 3 -0.28125 C 3.101562 -0.21875 3.207031 -0.179688 3.3125 -0.171875 C 3.414062 -0.160156 3.566406 -0.15625 3.765625 -0.15625 L 3.796875 0 L 0.5625 0 L 0.59375 -0.15625 C 0.875 -0.15625 1.078125 -0.171875 1.203125 -0.203125 C 1.335938 -0.234375 1.445312 -0.34375 1.53125 -0.53125 C 1.625 -0.71875 1.675781 -0.945312 1.6875 -1.21875 C 1.695312 -1.5 1.703125 -1.945312 1.703125 -2.5625 L 1.703125 -3.328125 C 1.703125 -4.554688 1.671875 -5.253906 1.609375 -5.421875 C 1.546875 -5.585938 1.484375 -5.71875 1.421875 -5.8125 C 1.367188 -5.914062 1.289062 -5.984375 1.1875 -6.015625 C 1 -6.066406 0.742188 -6.09375 0.421875 -6.09375 L 0.390625 -6.234375 C 1.148438 -6.347656 1.898438 -6.40625 2.640625 -6.40625 L 2.640625 -4.453125 C 2.734375 -5.078125 2.945312 -5.566406 3.28125 -5.921875 C 3.625 -6.285156 4.066406 -6.46875 4.609375 -6.46875 Z M 4.609375 -6.46875 "/>
</g>
</g>

<g style="fill:#902821;fill-opacity:1;">

<g transform="translate(39.899415, 22.95307)">

<path style="stroke:none" d="M 0.53125 -3.125 C 0.53125 -4.050781 0.796875 -4.828125 1.328125 -5.453125 C 1.859375 -6.085938 2.578125 -6.40625 3.484375 -6.40625 C 4.390625 -6.40625 5.117188 -6.085938 5.671875 -5.453125 C 6.234375 -4.828125 6.515625 -4.050781 6.515625 -3.125 C 6.515625 -2.195312 6.25 -1.421875 5.71875 -0.796875 C 5.1875 -0.179688 4.460938 0.125 3.546875 0.125 C 2.640625 0.125 1.910156 -0.1875 1.359375 -0.8125 C 0.804688 -1.4375 0.53125 -2.207031 0.53125 -3.125 Z M 2.046875 -0.96875 C 2.398438 -0.40625 2.898438 -0.125 3.546875 -0.125 C 4.191406 -0.125 4.679688 -0.398438 5.015625 -0.953125 C 5.347656 -1.515625 5.515625 -2.234375 5.515625 -3.109375 C 5.515625 -3.992188 5.335938 -4.71875 4.984375 -5.28125 C 4.628906 -5.851562 4.128906 -6.140625 3.484375 -6.140625 C 2.847656 -6.140625 2.363281 -5.859375 2.03125 -5.296875 C 1.695312 -4.734375 1.53125 -4.015625 1.53125 -3.140625 C 1.53125 -2.265625 1.703125 -1.539062 2.046875 -0.96875 Z M 2.046875 -0.96875 "/>

</g>
</g>

<g clip-rule="nonzero" clip-path="url(#9271464d2c)">

<path style=" stroke:none;fill-rule:nonzero;fill:#004aad;fill-opacity:1;" d="M 60.089844 14.167969 C 60.050781 14.136719 60.078125 14.160156 60.085938 14.164062 C 60.09375 14.171875 60.101562 14.175781 60.109375 14.179688 C 60.128906 14.191406 60.144531 14.199219 60.164062 14.207031 C 60.167969 14.207031 60.171875 14.210938 60.175781 14.210938 C 60.183594 14.214844 60.195312 14.21875 60.207031 14.222656 C 60.230469 14.230469 60.253906 14.234375 60.277344 14.242188 C 60.285156 14.242188 60.300781 14.246094 60.304688 14.246094 C 60.3125 14.238281 60.324219 14.234375 60.332031 14.230469 C 60.335938 14.226562 60.339844 14.222656 60.34375 14.222656 C 60.34375 14.21875 60.34375 14.21875 60.347656 14.214844 C 60.347656 14.214844 60.347656 14.210938 60.347656 14.207031 C 60.34375 14.203125 60.34375 14.191406 60.34375 14.179688 C 60.339844 14.179688 60.339844 14.171875 60.339844 14.171875 C 60.339844 14.164062 60.339844 14.160156 60.339844 14.152344 C 60.335938 14.140625 60.332031 14.132812 60.328125 14.121094 C 60.324219 14.113281 60.320312 14.109375 60.320312 14.101562 C 60.3125 14.089844 60.304688 14.078125 60.296875 14.066406 C 60.292969 14.054688 60.285156 14.046875 60.277344 14.035156 C 60.269531 14.03125 60.265625 14.023438 60.261719 14.015625 C 60.246094 14 60.234375 13.988281 60.21875 13.972656 C 60.207031 13.964844 60.199219 13.957031 60.1875 13.945312 L 54.578125 10.648438 L 54.578125 7.378906 L 51.472656 7.378906 L 51.472656 8.824219 L 48.402344 7.019531 L 36.316406 14.121094 C 36.316406 14.125 36.316406 14.125 36.316406 14.125 C 36.308594 14.140625 36.304688 14.15625 36.300781 14.171875 C 36.296875 14.183594 36.296875 14.191406 36.292969 14.199219 C 36.304688 14.207031 36.3125 14.214844 36.316406 14.226562 C 36.324219 14.234375 36.328125 14.246094 36.332031 14.257812 C 36.335938 14.257812 36.339844 14.257812 36.339844 14.261719 C 36.355469 14.265625 36.367188 14.265625 36.378906 14.269531 L 36.507812 14.269531 C 36.523438 14.269531 36.542969 14.265625 36.558594 14.265625 C 36.558594 14.265625 36.5625 14.265625 36.566406 14.265625 L 36.570312 14.261719 L 48.402344 7.308594 L 51.472656 9.113281 L 51.722656 9.261719 L 51.722656 7.628906 L 54.328125 7.628906 L 54.328125 10.792969 L 54.578125 10.9375 L 60.019531 14.136719 C 60.046875 14.140625 60.066406 14.152344 60.089844 14.167969 Z M 60.089844 14.167969 "/>

</g>
</g>

</svg>